# This file uses centimeters as units for non-parametric coordinates.

mtllib tiger_light_A.mtl
g default
v 95.060891 73.989631 97.364794
v 76.877870 73.989631 29.504835
v 95.060891 3.735832 97.364794
v 76.877870 3.735832 29.504835
vt 0.000000 0.000000
vt 1.000000 0.000000
vt 0.000000 1.000000
vt 1.000000 1.000000
vn -0.965926 -0.000000 0.258819
vn -0.965926 -0.000000 0.258819
vn -0.965926 -0.000000 0.258819
vn -0.965926 -0.000000 0.258819
s 1
g pPlane1
usemtl initialShadingGroup
f 1/1/1 2/2/2 3/3/3
f 3/3/3 2/2/2 4/4/4
