# This file uses centimeters as units for non-parametric coordinates.

mtllib roomLight.mtl
g default
v 133.480242 313.723516 -210.405839
v 438.457647 313.723516 -210.405839
v 133.480242 313.723516 -181.283466
v 438.457647 313.723516 -181.283466
vt 0.000000 0.000000
vt 1.000000 0.000000
vt 0.000000 1.000000
vt 1.000000 1.000000
vn 0.000000 -1.000000 -0.000000
vn 0.000000 -1.000000 -0.000000
vn 0.000000 -1.000000 -0.000000
vn 0.000000 -1.000000 -0.000000
s 1
g roomLight
usemtl initialShadingGroup
f 1/1/1 2/2/2 3/3/3
f 3/3/3 2/2/2 4/4/4
