# This file uses centimeters as units for non-parametric coordinates.

mtllib wall03.mtl
g default
v 434.897186 -93.520630 -345.336304
v 456.852325 -93.520630 -347.126801
v 478.807495 -93.520630 -348.917358
v 500.762634 -93.520630 -350.707916
v 522.717834 -93.520630 -352.498444
v 544.672974 -93.520630 -354.288971
v 566.628174 -93.520630 -356.079529
v 588.583313 -93.520630 -357.870056
v 610.538452 -93.520630 -359.660583
v 624.574768 -93.520630 -360.805298
v 434.897186 -71.492569 -345.336304
v 456.852325 -71.492569 -347.126801
v 478.807495 -71.492569 -348.917389
v 500.762634 -71.492569 -350.707916
v 522.717834 -71.492569 -352.498444
v 544.672974 -71.492569 -354.288971
v 566.628174 -71.492569 -356.079529
v 588.583313 -71.492569 -357.870056
v 610.538452 -71.492569 -359.660583
v 624.574768 -71.492569 -360.805298
v 434.897186 -49.464523 -345.336304
v 456.852325 -49.464523 -347.126831
v 478.807495 -49.464523 -348.917389
v 500.762634 -49.464523 -350.707916
v 522.717834 -49.464523 -352.498444
v 544.672974 -49.464523 -354.289001
v 566.628174 -49.464523 -356.079529
v 588.583313 -49.464523 -357.870056
v 610.538452 -49.464523 -359.660614
v 624.574768 -49.464523 -360.805328
v 434.897186 -27.436478 -345.336273
v 456.852325 -27.436478 -347.126801
v 478.807495 -27.436478 -348.917358
v 500.762634 -27.436478 -350.707886
v 522.717834 -27.436478 -352.498444
v 544.672974 -27.436478 -354.288971
v 566.628174 -27.436478 -356.079498
v 588.583313 -27.436478 -357.870026
v 610.538452 -27.436478 -359.660583
v 624.574768 -27.436478 -360.805298
v 434.897186 -5.408417 -345.336304
v 456.852325 -5.408417 -347.126801
v 478.807495 -5.408417 -348.917358
v 500.762634 -5.408417 -350.707916
v 522.717834 -5.408417 -352.498444
v 544.672974 -5.408417 -354.288971
v 566.628174 -5.408417 -356.079498
v 588.583313 -5.408417 -357.870056
v 610.538452 -5.408417 -359.660583
v 624.574768 -5.408417 -360.805298
v 434.897186 16.619629 -345.336304
v 456.852325 16.619629 -347.126801
v 478.807495 16.619629 -348.917358
v 500.762634 16.619629 -350.707916
v 522.717834 16.619629 -352.498444
v 544.672974 16.619629 -354.288971
v 566.628174 16.619629 -356.079529
v 588.583313 16.619629 -357.870056
v 610.538452 16.619629 -359.660583
v 624.574768 16.619629 -360.805298
v 434.897186 38.647675 -345.336304
v 456.852325 38.647675 -347.126801
v 478.807495 38.647675 -348.917389
v 500.762634 38.647675 -350.707916
v 522.717834 38.647675 -352.498444
v 544.672974 38.647675 -354.288971
v 566.628174 38.647675 -356.079529
v 588.583313 38.647675 -357.870056
v 610.538452 38.647675 -359.660583
v 624.574768 38.647675 -360.805298
v 434.897186 60.675751 -345.336304
v 456.852325 60.675751 -347.126831
v 478.807495 60.675751 -348.917389
v 500.762634 60.675751 -350.707916
v 522.717834 60.675751 -352.498444
v 544.672974 60.675751 -354.289001
v 566.628174 60.675751 -356.079529
v 588.583313 60.675751 -357.870056
v 610.538452 60.675751 -359.660614
v 624.574768 60.675751 -360.805328
v 434.897186 82.703766 -345.336273
v 456.852325 82.703766 -347.126801
v 478.807495 82.703766 -348.917358
v 500.762634 82.703766 -350.707886
v 522.717834 82.703766 -352.498444
v 544.672974 82.703766 -354.288971
v 566.628174 82.703766 -356.079498
v 588.583313 82.703766 -357.870026
v 610.538452 82.703766 -359.660583
v 624.574768 82.703766 -360.805298
v 434.897186 104.731873 -345.336304
v 456.852325 104.731873 -347.126801
v 478.807495 104.731873 -348.917358
v 500.762634 104.731873 -350.707916
v 522.717834 104.731873 -352.498444
v 544.672974 104.731873 -354.288971
v 566.628174 104.731873 -356.079498
v 588.583313 104.731873 -357.870056
v 610.538452 104.731873 -359.660583
v 624.574768 104.731873 -360.805298
v 434.897186 126.759888 -345.336304
v 456.852325 126.759888 -347.126801
v 478.807495 126.759888 -348.917358
v 500.762634 126.759888 -350.707916
v 522.717834 126.759888 -352.498444
v 544.672974 126.759888 -354.288971
v 566.628174 126.759888 -356.079529
v 588.583313 126.759888 -357.870056
v 610.538452 126.759888 -359.660583
v 624.574768 126.759888 -360.805298
v 410.463257 -93.520630 -343.343628
v 410.463257 -71.492569 -343.343628
v 410.463257 -49.464523 -343.343658
v 410.463257 -27.436478 -343.343628
v 410.463257 -5.408417 -343.343628
v 410.463257 16.619629 -343.343628
v 410.463257 38.647675 -343.343628
v 410.463257 60.675751 -343.343658
v 410.463257 82.703796 -343.343628
v 410.463257 104.731873 -343.343628
v 410.463257 126.759888 -343.343628
vt 0.100000 0.000000
vt 0.200000 0.000000
vt 0.300000 0.000000
vt 0.400000 0.000000
vt 0.500000 0.000000
vt 0.600000 0.000000
vt 0.700000 0.000000
vt 0.800000 0.000000
vt 0.900000 0.000000
vt 1.000000 0.000000
vt 0.100000 0.100000
vt 0.200000 0.100000
vt 0.300000 0.100000
vt 0.400000 0.100000
vt 0.500000 0.100000
vt 0.600000 0.100000
vt 0.700000 0.100000
vt 0.800000 0.100000
vt 0.900000 0.100000
vt 1.000000 0.100000
vt 0.100000 0.200000
vt 0.200000 0.200000
vt 0.300000 0.200000
vt 0.400000 0.200000
vt 0.500000 0.200000
vt 0.600000 0.200000
vt 0.700000 0.200000
vt 0.800000 0.200000
vt 0.900000 0.200000
vt 1.000000 0.200000
vt 0.100000 0.300000
vt 0.200000 0.300000
vt 0.300000 0.300000
vt 0.400000 0.300000
vt 0.500000 0.300000
vt 0.600000 0.300000
vt 0.700000 0.300000
vt 0.800000 0.300000
vt 0.900000 0.300000
vt 1.000000 0.300000
vt 0.100000 0.400000
vt 0.200000 0.400000
vt 0.300000 0.400000
vt 0.400000 0.400000
vt 0.500000 0.400000
vt 0.600000 0.400000
vt 0.700000 0.400000
vt 0.800000 0.400000
vt 0.900000 0.400000
vt 1.000000 0.400000
vt 0.100000 0.500000
vt 0.200000 0.500000
vt 0.300000 0.500000
vt 0.400000 0.500000
vt 0.500000 0.500000
vt 0.600000 0.500000
vt 0.700000 0.500000
vt 0.800000 0.500000
vt 0.900000 0.500000
vt 1.000000 0.500000
vt 0.100000 0.600000
vt 0.200000 0.600000
vt 0.300000 0.600000
vt 0.400000 0.600000
vt 0.500000 0.600000
vt 0.600000 0.600000
vt 0.700000 0.600000
vt 0.800000 0.600000
vt 0.900000 0.600000
vt 1.000000 0.600000
vt 0.100000 0.700000
vt 0.200000 0.700000
vt 0.300000 0.700000
vt 0.400000 0.700000
vt 0.500000 0.700000
vt 0.600000 0.700000
vt 0.700000 0.700000
vt 0.800000 0.700000
vt 0.900000 0.700000
vt 1.000000 0.700000
vt 0.100000 0.800000
vt 0.200000 0.800000
vt 0.300000 0.800000
vt 0.400000 0.800000
vt 0.500000 0.800000
vt 0.600000 0.800000
vt 0.700000 0.800000
vt 0.800000 0.800000
vt 0.900000 0.800000
vt 1.000000 0.800000
vt 0.100000 0.900000
vt 0.200000 0.900000
vt 0.300000 0.900000
vt 0.400000 0.900000
vt 0.500000 0.900000
vt 0.600000 0.900000
vt 0.700000 0.900000
vt 0.800000 0.900000
vt 0.900000 0.900000
vt 1.000000 0.900000
vt 0.100000 1.000000
vt 0.200000 1.000000
vt 0.300000 1.000000
vt 0.400000 1.000000
vt 0.500000 1.000000
vt 0.600000 1.000000
vt 0.700000 1.000000
vt 0.800000 1.000000
vt 0.900000 1.000000
vt 1.000000 1.000000
vt 0.014253 0.000000
vt 0.014253 0.100000
vt 0.014253 0.200000
vt 0.014253 0.300000
vt 0.014253 0.400000
vt 0.014253 0.500000
vt 0.014253 0.600000
vt 0.014253 0.700000
vt 0.014253 0.800000
vt 0.014253 0.900000
vt 0.014253 1.000000
vn 0.081284 0.000000 0.996691
vn 0.081285 0.000000 0.996691
vn 0.081284 0.000000 0.996691
vn 0.081283 0.000001 0.996691
vn 0.081286 0.000001 0.996691
vn 0.081284 0.000001 0.996691
vn 0.081285 0.000000 0.996691
vn 0.081284 0.000000 0.996691
vn 0.081284 0.000000 0.996691
vn 0.081284 0.000000 0.996691
vn 0.081285 0.000000 0.996691
vn 0.081284 0.000001 0.996691
vn 0.081285 0.000000 0.996691
vn 0.081284 0.000000 0.996691
vn 0.081284 0.000000 0.996691
vn 0.081284 0.000000 0.996691
vn 0.081285 0.000000 0.996691
vn 0.081285 0.000001 0.996691
vn 0.081286 0.000000 0.996691
vn 0.081285 0.000001 0.996691
vn 0.081284 -0.000000 0.996691
vn 0.081284 -0.000000 0.996691
vn 0.081285 -0.000001 0.996691
vn 0.081285 -0.000001 0.996691
vn 0.081285 0.000000 0.996691
vn 0.081285 -0.000000 0.996691
vn 0.081284 -0.000001 0.996691
vn 0.081284 -0.000001 0.996691
vn 0.081285 -0.000000 0.996691
vn 0.081282 -0.000000 0.996691
vn 0.081284 0.000000 0.996691
vn 0.081284 -0.000000 0.996691
vn 0.081284 -0.000001 0.996691
vn 0.081285 -0.000000 0.996691
vn 0.081285 -0.000000 0.996691
vn 0.081284 -0.000001 0.996691
vn 0.081284 -0.000001 0.996691
vn 0.081284 -0.000000 0.996691
vn 0.081284 -0.000000 0.996691
vn 0.081282 -0.000001 0.996691
vn 0.081283 0.000000 0.996691
vn 0.081284 0.000000 0.996691
vn 0.081284 0.000000 0.996691
vn 0.081285 0.000000 0.996691
vn 0.081284 0.000000 0.996691
vn 0.081284 0.000000 0.996691
vn 0.081285 0.000001 0.996691
vn 0.081285 0.000001 0.996691
vn 0.081284 0.000000 0.996691
vn 0.081284 0.000000 0.996691
vn 0.081283 0.000000 0.996691
vn 0.081284 0.000000 0.996691
vn 0.081285 0.000001 0.996691
vn 0.081285 0.000000 0.996691
vn 0.081284 0.000000 0.996691
vn 0.081285 0.000000 0.996691
vn 0.081285 0.000000 0.996691
vn 0.081284 0.000000 0.996691
vn 0.081284 0.000000 0.996691
vn 0.081284 0.000000 0.996691
vn 0.081284 0.000000 0.996691
vn 0.081284 0.000001 0.996691
vn 0.081285 0.000001 0.996691
vn 0.081284 0.000000 0.996691
vn 0.081284 0.000000 0.996691
vn 0.081284 0.000001 0.996691
vn 0.081284 0.000000 0.996691
vn 0.081284 0.000000 0.996691
vn 0.081284 0.000001 0.996691
vn 0.081284 0.000001 0.996691
vn 0.081284 -0.000000 0.996691
vn 0.081284 -0.000000 0.996691
vn 0.081285 -0.000001 0.996691
vn 0.081284 -0.000001 0.996691
vn 0.081286 0.000000 0.996691
vn 0.081285 -0.000000 0.996691
vn 0.081284 -0.000001 0.996691
vn 0.081284 -0.000001 0.996691
vn 0.081285 -0.000000 0.996691
vn 0.081283 -0.000000 0.996691
vn 0.081284 0.000000 0.996691
vn 0.081284 -0.000000 0.996691
vn 0.081285 -0.000001 0.996691
vn 0.081285 -0.000000 0.996691
vn 0.081285 -0.000000 0.996691
vn 0.081284 -0.000001 0.996691
vn 0.081284 -0.000001 0.996691
vn 0.081284 -0.000000 0.996691
vn 0.081284 -0.000000 0.996691
vn 0.081282 -0.000001 0.996691
vn 0.081284 0.000000 0.996691
vn 0.081284 0.000000 0.996691
vn 0.081284 0.000000 0.996691
vn 0.081284 0.000000 0.996691
vn 0.081284 0.000000 0.996691
vn 0.081285 0.000000 0.996691
vn 0.081285 0.000001 0.996691
vn 0.081285 0.000001 0.996691
vn 0.081284 0.000000 0.996691
vn 0.081284 0.000000 0.996691
vn 0.081283 0.000000 0.996691
vn 0.081283 0.000000 0.996691
vn 0.081285 0.000000 0.996691
vn 0.081285 0.000000 0.996691
vn 0.081284 0.000000 0.996691
vn 0.081284 0.000000 0.996691
vn 0.081285 0.000001 0.996691
vn 0.081284 0.000000 0.996691
vn 0.081285 0.000000 0.996691
vn 0.081284 0.000000 0.996691
vn 0.081283 0.000000 0.996691
vn 0.081284 0.000000 0.996691
vn 0.081285 -0.000000 0.996691
vn 0.081285 -0.000000 0.996691
vn 0.081284 0.000000 0.996691
vn 0.081285 0.000000 0.996691
vn 0.081284 0.000000 0.996691
vn 0.081284 -0.000000 0.996691
vn 0.081284 -0.000000 0.996691
vn 0.081283 0.000000 0.996691
vn 0.081283 0.000000 0.996691
s 1
g pPlane16 __GEOM__
usemtl initialShadingGroup
f 1/1/1 2/2/2 11/11/3
f 11/11/3 2/2/2 12/12/4
f 2/2/2 3/3/5 12/12/4
f 12/12/4 3/3/5 13/13/6
f 3/3/5 4/4/7 13/13/6
f 13/13/6 4/4/7 14/14/8
f 4/4/7 5/5/9 14/14/8
f 14/14/8 5/5/9 15/15/10
f 5/5/9 6/6/11 15/15/10
f 15/15/10 6/6/11 16/16/12
f 6/6/11 7/7/13 16/16/12
f 16/16/12 7/7/13 17/17/14
f 7/7/13 8/8/15 17/17/14
f 17/17/14 8/8/15 18/18/16
f 8/8/15 9/9/17 18/18/16
f 18/18/16 9/9/17 19/19/18
f 9/9/17 10/10/19 19/19/18
f 19/19/18 10/10/19 20/20/20
f 11/11/3 12/12/4 21/21/21
f 21/21/21 12/12/4 22/22/22
f 12/12/4 13/13/6 22/22/22
f 22/22/22 13/13/6 23/23/23
f 13/13/6 14/14/8 23/23/23
f 23/23/23 14/14/8 24/24/24
f 14/14/8 15/15/10 24/24/24
f 24/24/24 15/15/10 25/25/25
f 15/15/10 16/16/12 25/25/25
f 25/25/25 16/16/12 26/26/26
f 16/16/12 17/17/14 26/26/26
f 26/26/26 17/17/14 27/27/27
f 17/17/14 18/18/16 27/27/27
f 27/27/27 18/18/16 28/28/28
f 18/18/16 19/19/18 28/28/28
f 28/28/28 19/19/18 29/29/29
f 19/19/18 20/20/20 29/29/29
f 29/29/29 20/20/20 30/30/30
f 21/21/21 22/22/22 31/31/31
f 31/31/31 22/22/22 32/32/32
f 22/22/22 23/23/23 32/32/32
f 32/32/32 23/23/23 33/33/33
f 23/23/23 24/24/24 33/33/33
f 33/33/33 24/24/24 34/34/34
f 24/24/24 25/25/25 34/34/34
f 34/34/34 25/25/25 35/35/35
f 25/25/25 26/26/26 35/35/35
f 35/35/35 26/26/26 36/36/36
f 26/26/26 27/27/27 36/36/36
f 36/36/36 27/27/27 37/37/37
f 27/27/27 28/28/28 37/37/37
f 37/37/37 28/28/28 38/38/38
f 28/28/28 29/29/29 38/38/38
f 38/38/38 29/29/29 39/39/39
f 29/29/29 30/30/30 39/39/39
f 39/39/39 30/30/30 40/40/40
f 31/31/31 32/32/32 41/41/41
f 41/41/41 32/32/32 42/42/42
f 32/32/32 33/33/33 42/42/42
f 42/42/42 33/33/33 43/43/43
f 33/33/33 34/34/34 43/43/43
f 43/43/43 34/34/34 44/44/44
f 34/34/34 35/35/35 44/44/44
f 44/44/44 35/35/35 45/45/45
f 35/35/35 36/36/36 45/45/45
f 45/45/45 36/36/36 46/46/46
f 36/36/36 37/37/37 46/46/46
f 46/46/46 37/37/37 47/47/47
f 37/37/37 38/38/38 47/47/47
f 47/47/47 38/38/38 48/48/48
f 38/38/38 39/39/39 48/48/48
f 48/48/48 39/39/39 49/49/49
f 39/39/39 40/40/40 49/49/49
f 49/49/49 40/40/40 50/50/50
f 41/41/41 42/42/42 51/51/51
f 51/51/51 42/42/42 52/52/52
f 42/42/42 43/43/43 52/52/52
f 52/52/52 43/43/43 53/53/53
f 43/43/43 44/44/44 53/53/53
f 53/53/53 44/44/44 54/54/54
f 44/44/44 45/45/45 54/54/54
f 54/54/54 45/45/45 55/55/55
f 45/45/45 46/46/46 55/55/55
f 55/55/55 46/46/46 56/56/56
f 46/46/46 47/47/47 56/56/56
f 56/56/56 47/47/47 57/57/57
f 47/47/47 48/48/48 57/57/57
f 57/57/57 48/48/48 58/58/58
f 48/48/48 49/49/49 58/58/58
f 58/58/58 49/49/49 59/59/59
f 49/49/49 50/50/50 59/59/59
f 59/59/59 50/50/50 60/60/60
f 51/51/51 52/52/52 61/61/61
f 61/61/61 52/52/52 62/62/62
f 52/52/52 53/53/53 62/62/62
f 62/62/62 53/53/53 63/63/63
f 53/53/53 54/54/54 63/63/63
f 63/63/63 54/54/54 64/64/64
f 54/54/54 55/55/55 64/64/64
f 64/64/64 55/55/55 65/65/65
f 55/55/55 56/56/56 65/65/65
f 65/65/65 56/56/56 66/66/66
f 56/56/56 57/57/57 66/66/66
f 66/66/66 57/57/57 67/67/67
f 57/57/57 58/58/58 67/67/67
f 67/67/67 58/58/58 68/68/68
f 58/58/58 59/59/59 68/68/68
f 68/68/68 59/59/59 69/69/69
f 59/59/59 60/60/60 69/69/69
f 69/69/69 60/60/60 70/70/70
f 61/61/61 62/62/62 71/71/71
f 71/71/71 62/62/62 72/72/72
f 62/62/62 63/63/63 72/72/72
f 72/72/72 63/63/63 73/73/73
f 63/63/63 64/64/64 73/73/73
f 73/73/73 64/64/64 74/74/74
f 64/64/64 65/65/65 74/74/74
f 74/74/74 65/65/65 75/75/75
f 65/65/65 66/66/66 75/75/75
f 75/75/75 66/66/66 76/76/76
f 66/66/66 67/67/67 76/76/76
f 76/76/76 67/67/67 77/77/77
f 67/67/67 68/68/68 77/77/77
f 77/77/77 68/68/68 78/78/78
f 68/68/68 69/69/69 78/78/78
f 78/78/78 69/69/69 79/79/79
f 69/69/69 70/70/70 79/79/79
f 79/79/79 70/70/70 80/80/80
f 71/71/71 72/72/72 81/81/81
f 81/81/81 72/72/72 82/82/82
f 72/72/72 73/73/73 82/82/82
f 82/82/82 73/73/73 83/83/83
f 73/73/73 74/74/74 83/83/83
f 83/83/83 74/74/74 84/84/84
f 74/74/74 75/75/75 84/84/84
f 84/84/84 75/75/75 85/85/85
f 75/75/75 76/76/76 85/85/85
f 85/85/85 76/76/76 86/86/86
f 76/76/76 77/77/77 86/86/86
f 86/86/86 77/77/77 87/87/87
f 77/77/77 78/78/78 87/87/87
f 87/87/87 78/78/78 88/88/88
f 78/78/78 79/79/79 88/88/88
f 88/88/88 79/79/79 89/89/89
f 79/79/79 80/80/80 89/89/89
f 89/89/89 80/80/80 90/90/90
f 81/81/81 82/82/82 91/91/91
f 91/91/91 82/82/82 92/92/92
f 82/82/82 83/83/83 92/92/92
f 92/92/92 83/83/83 93/93/93
f 83/83/83 84/84/84 93/93/93
f 93/93/93 84/84/84 94/94/94
f 84/84/84 85/85/85 94/94/94
f 94/94/94 85/85/85 95/95/95
f 85/85/85 86/86/86 95/95/95
f 95/95/95 86/86/86 96/96/96
f 86/86/86 87/87/87 96/96/96
f 96/96/96 87/87/87 97/97/97
f 87/87/87 88/88/88 97/97/97
f 97/97/97 88/88/88 98/98/98
f 88/88/88 89/89/89 98/98/98
f 98/98/98 89/89/89 99/99/99
f 89/89/89 90/90/90 99/99/99
f 99/99/99 90/90/90 100/100/100
f 91/91/91 92/92/92 101/101/101
f 101/101/101 92/92/92 102/102/102
f 92/92/92 93/93/93 102/102/102
f 102/102/102 93/93/93 103/103/103
f 93/93/93 94/94/94 103/103/103
f 103/103/103 94/94/94 104/104/104
f 94/94/94 95/95/95 104/104/104
f 104/104/104 95/95/95 105/105/105
f 95/95/95 96/96/96 105/105/105
f 105/105/105 96/96/96 106/106/106
f 96/96/96 97/97/97 106/106/106
f 106/106/106 97/97/97 107/107/107
f 97/97/97 98/98/98 107/107/107
f 107/107/107 98/98/98 108/108/108
f 98/98/98 99/99/99 108/108/108
f 108/108/108 99/99/99 109/109/109
f 99/99/99 100/100/100 109/109/109
f 109/109/109 100/100/100 110/110/110
f 111/111/111 1/1/1 112/112/112
f 112/112/112 1/1/1 11/11/3
f 113/113/113 112/112/112 21/21/21
f 21/21/21 112/112/112 11/11/3
f 114/114/114 113/113/113 31/31/31
f 31/31/31 113/113/113 21/21/21
f 115/115/115 114/114/114 41/41/41
f 41/41/41 114/114/114 31/31/31
f 116/116/116 115/115/115 51/51/51
f 51/51/51 115/115/115 41/41/41
f 117/117/117 116/116/116 61/61/61
f 61/61/61 116/116/116 51/51/51
f 118/118/118 117/117/117 71/71/71
f 71/71/71 117/117/117 61/61/61
f 119/119/119 118/118/118 81/81/81
f 81/81/81 118/118/118 71/71/71
f 120/120/120 119/119/119 91/91/91
f 91/91/91 119/119/119 81/81/81
f 121/121/121 120/120/120 101/101/101
f 101/101/101 120/120/120 91/91/91
