# This file uses centimeters as units for non-parametric coordinates.

mtllib background.mtl
g default
v -311.489174 -0.000000 216.146093
v 311.489174 -0.000000 216.146093
v -311.489174 -0.000000 144.097387
v 311.489174 -0.000000 144.097387
v -311.489174 -0.000000 72.048693
v 311.489174 -0.000000 72.048693
v -311.489174 1.992036 -3.743489
v 311.489174 1.992036 -3.743489
v -311.489174 24.628103 -93.884914
v 311.489174 24.628103 -93.884914
v -311.489174 115.678418 -171.446286
v 311.489174 115.678418 -171.446286
v -311.489174 280.886652 -216.146093
v 311.489174 280.886652 -216.146093
v 311.489174 59.739914 -136.308936
v 0.000000 115.678408 -171.446286
v -311.489174 59.739919 -136.308936
v 311.489174 192.620813 -196.590683
v 0.000000 280.886652 -216.146093
v -311.489174 192.620813 -196.590683
v 0.000000 -0.000000 216.146093
v 311.489174 -0.000000 180.121727
v 0.000000 -0.000000 144.097400
v -311.489174 -0.000000 180.121727
v 311.489174 -0.000000 108.073047
v 0.000000 -0.000000 72.048693
v -311.489174 -0.000000 108.073047
v 311.489174 0.199204 35.650000
v 0.000000 1.992036 -3.743489
v -311.489174 0.199204 35.650000
v 311.489174 7.761626 -48.165650
v 0.000000 24.628103 -93.884914
v -311.489174 7.761626 -48.165650
v 0.000000 -0.000000 180.121753
v 0.000000 -0.000000 108.073040
v 0.000000 0.199204 35.650000
v 0.000000 7.761626 -48.165647
v 0.000000 59.739919 -136.308936
v 0.000000 192.620813 -196.590683
v -155.744587 -0.000000 198.133923
v 155.744587 -0.000000 198.133923
v 155.744587 -0.000000 162.109557
v -155.744587 -0.000000 162.109557
v -155.744587 -0.000000 126.085217
v 155.744587 -0.000000 126.085217
v 155.744587 -0.000000 90.060864
v -155.744587 -0.000000 90.060864
v -155.744587 -0.000000 54.036520
v 155.744587 -0.000000 54.036520
v 155.744587 0.796814 16.514777
v -155.744587 0.796814 16.514777
v -155.744587 3.984072 -25.499149
v 155.744587 3.984072 -25.499149
v 155.744587 14.313402 -71.156421
v -155.744587 14.313402 -71.156421
v -155.744587 39.694432 -115.764551
v 155.744587 39.694437 -115.764551
v 155.744587 84.992070 -155.031659
v -155.744587 84.992070 -155.031659
v -155.744587 152.026482 -185.066419
v 155.744587 152.026464 -185.066432
v 155.744587 236.046026 -206.717700
v -155.744587 236.046026 -206.717713
v 0.000000 -0.000000 198.133910
v 155.744587 -0.000000 180.121740
v 0.000000 -0.000000 162.109570
v -155.744587 -0.000000 180.121740
v 0.000000 -0.000000 126.085204
v 155.744587 -0.000000 108.073047
v 0.000000 -0.000000 90.060864
v -155.744587 -0.000000 108.073047
v 0.000000 -0.000000 54.036517
v 155.744587 0.199204 35.650000
v 0.000000 0.796814 16.514778
v -155.744587 0.199204 35.650000
v 0.000000 3.984072 -25.499150
v 155.744587 7.761626 -48.165650
v 0.000000 14.313402 -71.156428
v -155.744587 7.761626 -48.165650
v 0.000000 39.694437 -115.764564
v 155.744587 59.739914 -136.308936
v 0.000000 84.992079 -155.031659
v -155.744587 59.739914 -136.308936
v 0.000000 152.026473 -185.066419
v 155.744587 192.620813 -196.590696
v 0.000000 236.046008 -206.717700
v -155.744587 192.620813 -196.590696
v -155.744587 -0.000000 216.146093
v 155.744587 -0.000000 216.146093
v 311.489174 -0.000000 198.133910
v 311.489174 -0.000000 162.109557
v 155.744587 -0.000000 144.097387
v -155.744587 -0.000000 144.097387
v -311.489174 -0.000000 162.109557
v -311.489174 -0.000000 198.133910
v 311.489174 -0.000000 126.085204
v 311.489174 -0.000000 90.060864
v 155.744587 -0.000000 72.048693
v -155.744587 -0.000000 72.048693
v -311.489174 -0.000000 90.060864
v -311.489174 -0.000000 126.085204
v 311.489174 -0.000000 54.036517
v 311.489174 0.796814 16.514777
v 155.744587 1.992036 -3.743489
v -155.744587 1.992036 -3.743488
v -311.489174 0.796814 16.514777
v -311.489174 -0.000000 54.036517
v 311.489174 3.984072 -25.499152
v 311.489174 14.313402 -71.156421
v 155.744587 24.628103 -93.884907
v -155.744587 24.628103 -93.884914
v -311.489174 14.313402 -71.156421
v -311.489174 3.984072 -25.499152
v 311.489174 39.694437 -115.764564
v 311.489174 84.992070 -155.031659
v 155.744587 115.678418 -171.446299
v -155.744587 115.678408 -171.446299
v -311.489174 84.992070 -155.031659
v -311.489174 39.694437 -115.764564
v 311.489174 152.026482 -185.066432
v 311.489174 236.046026 -206.717700
v 155.744587 280.886652 -216.146093
v -155.744587 280.886652 -216.146093
v -311.489174 236.046026 -206.717700
v -311.489174 152.026482 -185.066432
vt 0.000000 0.000000
vt 1.000000 0.000000
vt 0.000000 0.166667
vt 1.000000 0.166667
vt 0.000000 0.333333
vt 1.000000 0.333333
vt 0.000000 0.500000
vt 1.000000 0.500000
vt 0.000000 0.666667
vt 1.000000 0.666667
vt 0.000000 0.833333
vt 1.000000 0.833333
vt 0.000000 1.000000
vt 1.000000 1.000000
vt 0.500000 0.083333
vt 0.500000 0.250000
vt 0.500000 0.416667
vt 0.500000 0.583333
vt 0.500000 0.750000
vt 0.500000 0.916667
vt 0.500000 0.000000
vt 1.000000 0.083333
vt 0.500000 0.166667
vt 0.000000 0.083333
vt 1.000000 0.250000
vt 0.500000 0.333333
vt 0.000000 0.250000
vt 1.000000 0.416667
vt 0.500000 0.500000
vt 0.000000 0.416667
vt 1.000000 0.583333
vt 0.500000 0.666667
vt 0.000000 0.583333
vt 1.000000 0.750000
vt 0.500000 0.833333
vt 0.000000 0.750000
vt 1.000000 0.916667
vt 0.500000 1.000000
vt 0.000000 0.916667
vt 0.250000 0.041667
vt 0.750000 0.041667
vt 0.750000 0.125000
vt 0.250000 0.125000
vt 0.250000 0.208333
vt 0.750000 0.208333
vt 0.750000 0.291667
vt 0.250000 0.291667
vt 0.250000 0.375000
vt 0.750000 0.375000
vt 0.750000 0.458333
vt 0.250000 0.458333
vt 0.250000 0.541667
vt 0.750000 0.541667
vt 0.750000 0.625000
vt 0.250000 0.625000
vt 0.250000 0.708333
vt 0.750000 0.708333
vt 0.750000 0.791667
vt 0.250000 0.791667
vt 0.250000 0.875000
vt 0.750000 0.875000
vt 0.750000 0.958333
vt 0.250000 0.958333
vt 0.500000 0.041667
vt 0.750000 0.083333
vt 0.500000 0.125000
vt 0.250000 0.083333
vt 0.500000 0.208333
vt 0.750000 0.250000
vt 0.500000 0.291667
vt 0.250000 0.250000
vt 0.500000 0.375000
vt 0.750000 0.416667
vt 0.500000 0.458333
vt 0.250000 0.416667
vt 0.500000 0.541667
vt 0.750000 0.583333
vt 0.500000 0.625000
vt 0.250000 0.583333
vt 0.500000 0.708333
vt 0.750000 0.750000
vt 0.500000 0.791667
vt 0.250000 0.750000
vt 0.500000 0.875000
vt 0.750000 0.916667
vt 0.500000 0.958333
vt 0.250000 0.916667
vt 0.250000 0.000000
vt 0.750000 0.000000
vt 1.000000 0.041667
vt 1.000000 0.125000
vt 0.750000 0.166667
vt 0.250000 0.166667
vt 0.000000 0.125000
vt 0.000000 0.041667
vt 1.000000 0.208333
vt 1.000000 0.291667
vt 0.750000 0.333333
vt 0.250000 0.333333
vt 0.000000 0.291667
vt 0.000000 0.208333
vt 1.000000 0.375000
vt 1.000000 0.458333
vt 0.750000 0.500000
vt 0.250000 0.500000
vt 0.000000 0.458333
vt 0.000000 0.375000
vt 1.000000 0.541667
vt 1.000000 0.625000
vt 0.750000 0.666667
vt 0.250000 0.666667
vt 0.000000 0.625000
vt 0.000000 0.541667
vt 1.000000 0.708333
vt 1.000000 0.791667
vt 0.750000 0.833333
vt 0.250000 0.833333
vt 0.000000 0.791667
vt 0.000000 0.708333
vt 1.000000 0.875000
vt 1.000000 0.958333
vt 0.750000 1.000000
vt 0.250000 1.000000
vt 0.000000 0.958333
vt 0.000000 0.875000
vn 0.000000 1.000000 0.000000
vn -0.000000 1.000000 0.000000
vn -0.000000 1.000000 0.000000
vn -0.000000 1.000000 0.000000
vn 0.000000 1.000000 0.000000
vn 0.000000 1.000000 0.000000
vn 0.000000 1.000000 0.000000
vn 0.000000 1.000000 0.000000
vn -0.000000 1.000000 0.000000
vn -0.000000 1.000000 0.000000
vn -0.000000 1.000000 0.000000
vn 0.000000 1.000000 0.000000
vn 0.000000 1.000000 0.000000
vn -0.000000 1.000000 0.000000
vn 0.000000 1.000000 0.000000
vn 0.000000 1.000000 0.000000
vn -0.000000 1.000000 0.000000
vn 0.000000 1.000000 0.000000
vn 0.000000 1.000000 0.000000
vn 0.000000 1.000000 0.000000
vn -0.000000 1.000000 0.000000
vn 0.000000 1.000000 0.000000
vn 0.000000 1.000000 0.000000
vn -0.000000 1.000000 0.000000
vn 0.000000 1.000000 0.000000
vn 0.000000 1.000000 0.000000
vn -0.000000 1.000000 0.000000
vn -0.000000 1.000000 0.000000
vn -0.000000 1.000000 0.000000
vn 0.000000 1.000000 0.000000
vn 0.000000 1.000000 0.000000
vn -0.000000 1.000000 0.000000
vn 0.000000 1.000000 0.000000
vn 0.000000 1.000000 0.000000
vn 0.000000 1.000000 0.000000
vn 0.000000 1.000000 0.000000
vn 0.000000 1.000000 0.000000
vn 0.000000 1.000000 0.000000
vn -0.000000 1.000000 0.000000
vn 0.000000 1.000000 0.000000
vn 0.000000 1.000000 0.000000
vn 0.000000 1.000000 0.000000
vn 0.000000 1.000000 0.000000
vn -0.000000 1.000000 0.000000
vn 0.000000 1.000000 0.000000
vn -0.000000 0.999985 0.005473
vn -0.000000 0.999985 0.005473
vn 0.000000 0.999985 0.005473
vn 0.000000 0.999775 0.021231
vn 0.000000 0.999775 0.021231
vn 0.000000 0.999775 0.021231
vn -0.000000 0.999985 0.005473
vn 0.000000 0.999985 0.005473
vn 0.000000 0.999775 0.021231
vn 0.000000 0.999775 0.021231
vn 0.000000 0.998966 0.045464
vn 0.000000 0.998966 0.045464
vn 0.000000 0.998966 0.045464
vn -0.000000 0.997135 0.075645
vn 0.000000 0.997135 0.075645
vn 0.000000 0.997135 0.075645
vn 0.000000 0.998966 0.045464
vn -0.000000 0.998966 0.045464
vn -0.000000 0.997135 0.075645
vn -0.000000 0.997135 0.075645
vn -0.000000 0.991671 0.128799
vn -0.000000 0.991671 0.128799
vn -0.000000 0.991671 0.128799
vn -0.000000 0.975351 0.220660
vn 0.000000 0.975351 0.220660
vn 0.000000 0.975351 0.220660
vn 0.000000 0.991671 0.128799
vn 0.000000 0.991671 0.128799
vn -0.000000 0.975351 0.220660
vn 0.000000 0.975351 0.220660
vn -0.000000 0.938193 0.346113
vn -0.000000 0.938193 0.346113
vn 0.000000 0.938193 0.346113
vn -0.000000 0.869159 0.494532
vn 0.000000 0.869159 0.494532
vn 0.000000 0.869159 0.494532
vn 0.000000 0.938193 0.346113
vn 0.000000 0.938193 0.346113
vn -0.000000 0.869159 0.494532
vn 0.000000 0.869159 0.494532
vn -0.000000 0.770374 0.637592
vn 0.000000 0.770374 0.637592
vn -0.000000 0.770374 0.637592
vn 0.000000 0.655018 0.755613
vn -0.000000 0.655018 0.755614
vn -0.000000 0.655018 0.755614
vn 0.000000 0.770374 0.637592
vn 0.000000 0.770374 0.637592
vn 0.000000 0.655018 0.755614
vn 0.000000 0.655018 0.755614
vn -0.000000 0.531911 0.846800
vn 0.000000 0.531911 0.846800
vn 0.000000 0.531911 0.846800
vn -0.000000 0.408885 0.912586
vn -0.000000 0.408884 0.912586
vn -0.000000 0.408884 0.912586
vn 0.000000 0.531911 0.846800
vn 0.000000 0.531911 0.846800
vn -0.000000 0.408884 0.912586
vn 0.000000 0.408884 0.912586
vn 0.000000 0.310629 0.950531
vn -0.000000 0.310629 0.950531
vn 0.000000 0.310629 0.950531
vn 0.000000 0.249541 0.968364
vn 0.000000 0.249541 0.968364
vn 0.000000 0.249541 0.968364
vn 0.000000 0.310629 0.950531
vn 0.000000 0.310629 0.950531
vn 0.000000 0.249541 0.968364
vn 0.000000 0.249541 0.968364
vn -0.000000 0.216306 0.976326
vn 0.000000 0.216306 0.976326
vn 0.000000 0.216306 0.976326
vn 0.000000 0.205765 0.978601
vn 0.000000 0.205765 0.978601
vn 0.000000 0.205765 0.978601
vn 0.000000 0.216306 0.976326
vn -0.000000 0.216306 0.976326
vn 0.000000 0.205765 0.978601
vn 0.000000 0.205765 0.978601
s 1
g background
usemtl initialShadingGroup
f 1/1/1 88/88/2 95/95/3
f 95/95/3 88/88/2 40/40/4
f 88/88/2 21/21/5 40/40/4
f 40/40/4 21/21/5 64/64/6
f 40/40/4 64/64/6 67/67/7
f 67/67/7 64/64/6 34/15/8
f 95/95/3 40/40/4 24/24/9
f 24/24/9 40/40/4 67/67/7
f 21/21/5 89/89/10 64/64/6
f 64/64/6 89/89/10 41/41/11
f 89/89/10 2/2/12 41/41/11
f 41/41/11 2/2/12 90/90/13
f 41/41/11 90/90/13 65/65/14
f 65/65/14 90/90/13 22/22/15
f 64/64/6 41/41/11 34/15/8
f 34/15/8 41/41/11 65/65/14
f 34/15/8 65/65/14 66/66/16
f 66/66/16 65/65/14 42/42/17
f 65/65/14 22/22/15 42/42/17
f 42/42/17 22/22/15 91/91/18
f 42/42/17 91/91/18 92/92/19
f 92/92/19 91/91/18 4/4/20
f 66/66/16 42/42/17 23/23/21
f 23/23/21 42/42/17 92/92/19
f 24/24/9 67/67/7 94/94/22
f 94/94/22 67/67/7 43/43/23
f 67/67/7 34/15/8 43/43/23
f 43/43/23 34/15/8 66/66/16
f 43/43/23 66/66/16 93/93/24
f 93/93/24 66/66/16 23/23/21
f 94/94/22 43/43/23 3/3/25
f 3/3/25 43/43/23 93/93/24
f 3/3/25 93/93/24 101/101/26
f 101/101/26 93/93/24 44/44/27
f 93/93/24 23/23/21 44/44/27
f 44/44/27 23/23/21 68/68/28
f 44/44/27 68/68/28 71/71/29
f 71/71/29 68/68/28 35/16/30
f 101/101/26 44/44/27 27/27/31
f 27/27/31 44/44/27 71/71/29
f 23/23/21 92/92/19 68/68/28
f 68/68/28 92/92/19 45/45/32
f 92/92/19 4/4/20 45/45/32
f 45/45/32 4/4/20 96/96/33
f 45/45/32 96/96/33 69/69/34
f 69/69/34 96/96/33 25/25/35
f 68/68/28 45/45/32 35/16/30
f 35/16/30 45/45/32 69/69/34
f 35/16/30 69/69/34 70/70/36
f 70/70/36 69/69/34 46/46/37
f 69/69/34 25/25/35 46/46/37
f 46/46/37 25/25/35 97/97/38
f 46/46/37 97/97/38 98/98/39
f 98/98/39 97/97/38 6/6/40
f 70/70/36 46/46/37 26/26/41
f 26/26/41 46/46/37 98/98/39
f 27/27/31 71/71/29 100/100/42
f 100/100/42 71/71/29 47/47/43
f 71/71/29 35/16/30 47/47/43
f 47/47/43 35/16/30 70/70/36
f 47/47/43 70/70/36 99/99/44
f 99/99/44 70/70/36 26/26/41
f 100/100/42 47/47/43 5/5/45
f 5/5/45 47/47/43 99/99/44
f 5/5/45 99/99/44 107/107/46
f 107/107/46 99/99/44 48/48/47
f 99/99/44 26/26/41 48/48/47
f 48/48/47 26/26/41 72/72/48
f 48/48/47 72/72/48 75/75/49
f 75/75/49 72/72/48 36/17/50
f 107/107/46 48/48/47 30/30/51
f 30/30/51 48/48/47 75/75/49
f 26/26/41 98/98/39 72/72/48
f 72/72/48 98/98/39 49/49/52
f 98/98/39 6/6/40 49/49/52
f 49/49/52 6/6/40 102/102/53
f 49/49/52 102/102/53 73/73/54
f 73/73/54 102/102/53 28/28/55
f 72/72/48 49/49/52 36/17/50
f 36/17/50 49/49/52 73/73/54
f 36/17/50 73/73/54 74/74/56
f 74/74/56 73/73/54 50/50/57
f 73/73/54 28/28/55 50/50/57
f 50/50/57 28/28/55 103/103/58
f 50/50/57 103/103/58 104/104/59
f 104/104/59 103/103/58 8/8/60
f 74/74/56 50/50/57 29/29/61
f 29/29/61 50/50/57 104/104/59
f 30/30/51 75/75/49 106/106/62
f 106/106/62 75/75/49 51/51/63
f 75/75/49 36/17/50 51/51/63
f 51/51/63 36/17/50 74/74/56
f 51/51/63 74/74/56 105/105/64
f 105/105/64 74/74/56 29/29/61
f 106/106/62 51/51/63 7/7/65
f 7/7/65 51/51/63 105/105/64
f 7/7/65 105/105/64 113/113/66
f 113/113/66 105/105/64 52/52/67
f 105/105/64 29/29/61 52/52/67
f 52/52/67 29/29/61 76/76/68
f 52/52/67 76/76/68 79/79/69
f 79/79/69 76/76/68 37/18/70
f 113/113/66 52/52/67 33/33/71
f 33/33/71 52/52/67 79/79/69
f 29/29/61 104/104/59 76/76/68
f 76/76/68 104/104/59 53/53/72
f 104/104/59 8/8/60 53/53/72
f 53/53/72 8/8/60 108/108/73
f 53/53/72 108/108/73 77/77/74
f 77/77/74 108/108/73 31/31/75
f 76/76/68 53/53/72 37/18/70
f 37/18/70 53/53/72 77/77/74
f 37/18/70 77/77/74 78/78/76
f 78/78/76 77/77/74 54/54/77
f 77/77/74 31/31/75 54/54/77
f 54/54/77 31/31/75 109/109/78
f 54/54/77 109/109/78 110/110/79
f 110/110/79 109/109/78 10/10/80
f 78/78/76 54/54/77 32/32/81
f 32/32/81 54/54/77 110/110/79
f 33/33/71 79/79/69 112/112/82
f 112/112/82 79/79/69 55/55/83
f 79/79/69 37/18/70 55/55/83
f 55/55/83 37/18/70 78/78/76
f 55/55/83 78/78/76 111/111/84
f 111/111/84 78/78/76 32/32/81
f 112/112/82 55/55/83 9/9/85
f 9/9/85 55/55/83 111/111/84
f 9/9/85 111/111/84 119/119/86
f 119/119/86 111/111/84 56/56/87
f 111/111/84 32/32/81 56/56/87
f 56/56/87 32/32/81 80/80/88
f 56/56/87 80/80/88 83/83/89
f 83/83/89 80/80/88 38/19/90
f 119/119/86 56/56/87 17/36/91
f 17/36/91 56/56/87 83/83/89
f 32/32/81 110/110/79 80/80/88
f 80/80/88 110/110/79 57/57/92
f 110/110/79 10/10/80 57/57/92
f 57/57/92 10/10/80 114/114/93
f 57/57/92 114/114/93 81/81/94
f 81/81/94 114/114/93 15/34/95
f 80/80/88 57/57/92 38/19/90
f 38/19/90 57/57/92 81/81/94
f 38/19/90 81/81/94 82/82/96
f 82/82/96 81/81/94 58/58/97
f 81/81/94 15/34/95 58/58/97
f 58/58/97 15/34/95 115/115/98
f 58/58/97 115/115/98 116/116/99
f 116/116/99 115/115/98 12/12/100
f 82/82/96 58/58/97 16/35/101
f 16/35/101 58/58/97 116/116/99
f 17/36/91 83/83/89 118/118/102
f 118/118/102 83/83/89 59/59/103
f 83/83/89 38/19/90 59/59/103
f 59/59/103 38/19/90 82/82/96
f 59/59/103 82/82/96 117/117/104
f 117/117/104 82/82/96 16/35/101
f 118/118/102 59/59/103 11/11/105
f 11/11/105 59/59/103 117/117/104
f 11/11/105 117/117/104 125/125/106
f 125/125/106 117/117/104 60/60/107
f 117/117/104 16/35/101 60/60/107
f 60/60/107 16/35/101 84/84/108
f 60/60/107 84/84/108 87/87/109
f 87/87/109 84/84/108 39/20/110
f 125/125/106 60/60/107 20/39/111
f 20/39/111 60/60/107 87/87/109
f 16/35/101 116/116/99 84/84/108
f 84/84/108 116/116/99 61/61/112
f 116/116/99 12/12/100 61/61/112
f 61/61/112 12/12/100 120/120/113
f 61/61/112 120/120/113 85/85/114
f 85/85/114 120/120/113 18/37/115
f 84/84/108 61/61/112 39/20/110
f 39/20/110 61/61/112 85/85/114
f 39/20/110 85/85/114 86/86/116
f 86/86/116 85/85/114 62/62/117
f 85/85/114 18/37/115 62/62/117
f 62/62/117 18/37/115 121/121/118
f 62/62/117 121/121/118 122/122/119
f 122/122/119 121/121/118 14/14/120
f 86/86/116 62/62/117 19/38/121
f 19/38/121 62/62/117 122/122/119
f 20/39/111 87/87/109 124/124/122
f 124/124/122 87/87/109 63/63/123
f 87/87/109 39/20/110 63/63/123
f 63/63/123 39/20/110 86/86/116
f 63/63/123 86/86/116 123/123/124
f 123/123/124 86/86/116 19/38/121
f 124/124/122 63/63/123 13/13/125
f 13/13/125 63/63/123 123/123/124
