# This file uses centimeters as units for non-parametric coordinates.

mtllib sideLight.mtl
g default
v 319.330340 283.392455 -62.307502
v 384.447493 177.144371 -62.307502
v 319.330340 283.392455 62.307502
v 384.447493 177.144371 62.307502
vt 0.000000 0.000000
vt 1.000000 0.000000
vt 0.000000 1.000000
vt 1.000000 1.000000
vn -0.852611 -0.522547 0.000000
vn -0.852611 -0.522547 0.000000
vn -0.852611 -0.522547 0.000000
vn -0.852611 -0.522547 0.000000
s 1
g pPlane2
usemtl initialShadingGroup
f 1/1/1 2/2/2 3/3/3
f 3/3/3 2/2/2 4/4/4
